<?xml version="1.0" standalone="no"?>
<!DOCTYPE svg PUBLIC "-//W3C//DTD SVG 20010904//EN"
 "http://www.w3.org/TR/2001/REC-SVG-20010904/DTD/svg10.dtd">
<svg version="1.0" xmlns="http://www.w3.org/2000/svg"
 width="700.000000pt" height="700.000000pt" viewBox="0 0 700.000000 700.000000"
 preserveAspectRatio="xMidYMid meet">
<metadata>
Created by potrace 1.11, written by Peter Selinger 2001-2013
</metadata>
<g transform="translate(0.000000,700.000000) scale(0.100000,-0.100000)"
fill="#000000" stroke="none">
<path d="M133 5135 c4 -8 20 -69 36 -137 17 -68 55 -226 86 -353 31 -126 58
-237 60 -245 2 -8 20 -82 40 -165 20 -82 38 -157 40 -165 12 -53 87 -358 146
-600 39 -157 73 -296 75 -308 3 -13 39 -162 80 -330 41 -169 106 -437 145
-597 38 -159 74 -306 79 -326 l10 -35 264 0 c163 1 269 5 274 11 8 8 33 99 46
170 3 11 16 70 31 130 14 61 28 117 30 125 8 33 79 331 102 425 13 55 26 111
29 125 3 14 17 72 31 130 14 58 27 113 29 123 2 9 6 25 8 35 2 9 52 217 111
462 58 245 108 452 110 460 2 8 11 47 20 85 70 300 128 531 134 538 4 4 16
-30 26 -75 10 -46 19 -87 21 -93 1 -5 23 -100 49 -210 25 -110 48 -208 50
-218 2 -10 6 -26 9 -35 3 -9 7 -28 10 -42 3 -14 15 -63 26 -110 12 -47 23 -94
26 -105 6 -31 69 -301 119 -510 25 -104 47 -199 50 -210 2 -11 25 -108 50
-215 26 -107 48 -202 50 -210 2 -8 26 -110 54 -227 28 -117 52 -222 55 -235 2
-13 12 -52 21 -88 9 -36 19 -74 21 -85 2 -11 11 -50 19 -86 l16 -65 269 0
c147 1 270 3 273 6 3 4 35 131 52 210 2 8 28 116 59 240 147 598 188 767 192
785 2 11 17 74 33 140 17 66 57 230 90 365 58 241 133 545 291 1192 44 180 80
330 80 333 0 3 -98 5 -218 5 l-219 0 -13 -57 c-8 -32 -15 -63 -16 -69 -1 -6
-14 -60 -29 -120 -15 -60 -29 -120 -31 -134 -3 -14 -16 -68 -29 -120 -27 -106
-113 -460 -119 -493 -3 -12 -32 -134 -66 -272 -34 -137 -64 -261 -66 -275 -3
-14 -22 -95 -43 -180 -22 -85 -55 -225 -76 -310 -20 -85 -56 -236 -80 -335
-24 -99 -54 -223 -66 -275 -22 -97 -37 -140 -39 -110 -2 19 -41 190 -67 290
-3 14 -7 32 -9 40 -2 8 -31 128 -65 265 -33 138 -62 257 -64 265 -3 12 -26
112 -40 170 -2 8 -20 80 -40 160 -19 80 -37 154 -40 165 -2 11 -11 49 -20 85
-9 36 -18 72 -20 80 -2 9 -26 112 -55 230 -62 255 -123 509 -180 750 -23 96
-46 192 -51 213 l-10 37 -244 0 c-135 0 -245 -3 -245 -6 0 -3 -21 -92 -46
-197 -25 -106 -48 -199 -49 -207 -2 -8 -37 -154 -79 -325 -41 -170 -86 -359
-101 -420 -14 -60 -38 -157 -52 -215 -14 -58 -26 -112 -28 -120 -2 -8 -19 -80
-39 -160 -77 -315 -136 -564 -140 -584 -2 -12 -9 -41 -16 -66 -7 -25 -13 -52
-15 -60 -3 -15 -64 -266 -87 -363 l-12 -47 -63 262 c-35 145 -81 337 -104 428
-22 91 -43 176 -45 190 -3 14 -10 43 -16 65 -5 22 -11 47 -13 55 -2 8 -19 80
-39 160 -19 80 -53 222 -76 315 -22 94 -65 271 -95 395 -162 666 -187 771
-201 833 l-16 67 -220 0 c-189 0 -219 -2 -215 -15z"/>
<path d="M4270 3512 l0 -1638 215 0 215 0 0 694 0 693 313 -4 c284 -4 319 -7
387 -27 101 -29 159 -62 228 -130 105 -102 168 -211 397 -685 43 -88 119 -246
170 -351 l92 -190 230 0 c229 0 231 0 223 21 -4 11 -34 72 -65 135 -32 63
-105 212 -162 330 -58 118 -148 302 -200 409 -175 353 -319 536 -495 627 l-32
17 63 22 c255 93 429 324 467 620 30 237 -16 518 -113 685 -43 74 -157 194
-223 235 -103 65 -192 102 -315 131 -164 38 -236 42 -822 43 l-573 1 0 -1638z
m1135 1266 c6 -3 27 -9 47 -12 95 -15 205 -73 278 -147 94 -95 138 -227 138
-413 -1 -253 -88 -420 -269 -510 -124 -62 -182 -70 -559 -70 l-335 -1 -3 570
c-1 314 0 575 2 582 4 9 91 11 348 10 189 -2 348 -5 353 -9z"/>
</g>
</svg>
